<svg xmlns="http://www.w3.org/2000/svg" xmlns:xlink="http://www.w3.org/1999/xlink" width="500" zoomAndPan="magnify" viewBox="0 0 375 374.999991" height="500" preserveAspectRatio="xMidYMid meet" version="1.0"><defs><clipPath id="ed64270c8a"><path d="M 18.75 18.75 L 356.25 18.75 L 356.25 356.25 L 18.75 356.25 Z M 18.75 18.75 " clip-rule="nonzero"/></clipPath></defs><g clip-path="url(#ed64270c8a)"><path fill="#fbd600" d="M 187.5 356.25 C 280.648438 356.25 356.25 280.648438 356.25 187.5 L 187.613281 187.5 C 162.414062 160.726562 146.550781 136.648438 151.613281 131.585938 C 152.289062 130.914062 153.1875 130.6875 154.425781 130.574219 L 346.460938 130.574219 C 323.0625 65.4375 260.738281 18.75 187.5 18.75 C 94.351562 18.75 18.75 94.351562 18.75 187.5 L 187.386719 187.5 C 212.585938 214.273438 228.449219 238.351562 223.386719 243.414062 C 222.710938 244.085938 221.8125 244.3125 220.574219 244.425781 L 28.539062 244.425781 C 51.9375 309.5625 114.261719 356.25 187.5 356.25 Z M 187.5 356.25 " fill-opacity="1" fill-rule="nonzero"/></g></svg>