<svg xmlns="http://www.w3.org/2000/svg" xmlns:xlink="http://www.w3.org/1999/xlink" width="200" zoomAndPan="magnify" viewBox="0 0 150 74.999997" height="100" preserveAspectRatio="xMidYMid meet" version="1.0"><defs><g/><clipPath id="b913377af8"><path d="M 7.5 22.101562 L 38.25 22.101562 L 38.25 52.851562 L 7.5 52.851562 Z M 7.5 22.101562 " clip-rule="nonzero"/></clipPath></defs><g clip-path="url(#b913377af8)"><path fill="#fbd600" d="M 22.898438 52.898438 C 31.398438 52.898438 38.296875 46 38.296875 37.5 L 22.910156 37.5 C 20.609375 35.054688 19.160156 32.859375 19.625 32.394531 C 19.683594 32.335938 19.765625 32.3125 19.878906 32.304688 L 37.402344 32.304688 C 35.269531 26.359375 29.582031 22.101562 22.898438 22.101562 C 14.398438 22.101562 7.5 29 7.5 37.5 L 22.886719 37.5 C 25.1875 39.941406 26.636719 42.136719 26.171875 42.601562 C 26.113281 42.660156 26.03125 42.683594 25.917969 42.691406 L 8.394531 42.691406 C 10.527344 48.636719 16.214844 52.898438 22.898438 52.898438 Z M 22.898438 52.898438 " fill-opacity="1" fill-rule="nonzero"/></g><g fill="#ffffff" fill-opacity="1"><g transform="translate(41.919957, 45.749995)"><g><path d="M 15.96875 0 L 11.703125 0 L 6.46875 -10.828125 L 4.546875 0 L 0.28125 0 L 3.375 -17.546875 L 7.65625 -17.546875 L 12.875 -6.671875 L 14.796875 -17.546875 L 19.078125 -17.546875 Z M 15.96875 0 "/></g></g></g><g fill="#ffffff" fill-opacity="1"><g transform="translate(59.441981, 45.749995)"><g><path d="M 8.96875 -14.15625 C 10.769531 -14.15625 12.195312 -13.664062 13.25 -12.6875 C 14.3125 -11.707031 14.84375 -10.378906 14.84375 -8.703125 C 14.84375 -8.148438 14.800781 -7.65625 14.71875 -7.21875 C 14.65625 -6.84375 14.554688 -6.4375 14.421875 -6 L 4.75 -6 C 4.726562 -5.894531 4.71875 -5.738281 4.71875 -5.53125 C 4.71875 -4.789062 4.914062 -4.226562 5.3125 -3.84375 C 5.71875 -3.46875 6.253906 -3.28125 6.921875 -3.28125 C 7.992188 -3.28125 8.8125 -3.726562 9.375 -4.625 L 13.921875 -4.625 C 13.328125 -3.207031 12.351562 -2.046875 11 -1.140625 C 9.644531 -0.242188 8.128906 0.203125 6.453125 0.203125 C 4.648438 0.203125 3.210938 -0.296875 2.140625 -1.296875 C 1.066406 -2.296875 0.53125 -3.65625 0.53125 -5.375 C 0.53125 -5.894531 0.578125 -6.425781 0.671875 -6.96875 C 0.921875 -8.425781 1.4375 -9.695312 2.21875 -10.78125 C 3.007812 -11.863281 3.988281 -12.695312 5.15625 -13.28125 C 6.320312 -13.863281 7.59375 -14.15625 8.96875 -14.15625 Z M 10.53125 -8.171875 C 10.5625 -8.410156 10.578125 -8.570312 10.578125 -8.65625 C 10.578125 -9.320312 10.367188 -9.832031 9.953125 -10.1875 C 9.535156 -10.539062 8.984375 -10.71875 8.296875 -10.71875 C 7.566406 -10.71875 6.921875 -10.5 6.359375 -10.0625 C 5.804688 -9.625 5.40625 -8.992188 5.15625 -8.171875 Z M 10.53125 -8.171875 "/></g></g></g><g fill="#ffffff" fill-opacity="1"><g transform="translate(73.564548, 45.749995)"><g><path d="M 6.078125 -4.796875 C 6.054688 -4.710938 6.046875 -4.601562 6.046875 -4.46875 C 6.046875 -4.175781 6.132812 -3.960938 6.3125 -3.828125 C 6.488281 -3.691406 6.773438 -3.625 7.171875 -3.625 L 8.703125 -3.625 L 8.046875 0 L 5.875 0 C 3.070312 0 1.671875 -1.175781 1.671875 -3.53125 C 1.671875 -3.875 1.710938 -4.3125 1.796875 -4.84375 L 2.796875 -10.40625 L 1.09375 -10.40625 L 1.71875 -13.953125 L 3.421875 -13.953125 L 4.03125 -17.34375 L 8.296875 -17.34375 L 7.703125 -13.953125 L 10.5 -13.953125 L 9.875 -10.40625 L 7.078125 -10.40625 Z M 6.078125 -4.796875 "/></g></g></g><g fill="#ffffff" fill-opacity="1"><g transform="translate(82.437938, 45.749995)"><g><path d="M 16.171875 -13 C 15.992188 -11.96875 15.570312 -11.109375 14.90625 -10.421875 C 14.238281 -9.742188 13.4375 -9.269531 12.5 -9 C 13.332031 -8.8125 13.988281 -8.398438 14.46875 -7.765625 C 14.957031 -7.140625 15.203125 -6.398438 15.203125 -5.546875 C 15.203125 -5.285156 15.175781 -5.03125 15.125 -4.78125 C 14.875 -3.3125 14.15625 -2.144531 12.96875 -1.28125 C 11.789062 -0.425781 10.285156 0 8.453125 0 L 0.28125 0 L 3.375 -17.546875 L 11.28125 -17.546875 C 12.863281 -17.546875 14.085938 -17.21875 14.953125 -16.5625 C 15.816406 -15.914062 16.25 -15.019531 16.25 -13.875 C 16.25 -13.59375 16.222656 -13.300781 16.171875 -13 Z M 9.171875 -10.421875 C 9.890625 -10.421875 10.460938 -10.578125 10.890625 -10.890625 C 11.328125 -11.210938 11.597656 -11.675781 11.703125 -12.28125 C 11.710938 -12.375 11.71875 -12.503906 11.71875 -12.671875 C 11.71875 -13.160156 11.5625 -13.53125 11.25 -13.78125 C 10.9375 -14.039062 10.46875 -14.171875 9.84375 -14.171875 L 7.046875 -14.171875 L 6.40625 -10.421875 Z M 10.875 -5.34375 C 10.90625 -5.550781 10.921875 -5.703125 10.921875 -5.796875 C 10.921875 -6.285156 10.742188 -6.664062 10.390625 -6.9375 C 10.046875 -7.207031 9.566406 -7.34375 8.953125 -7.34375 L 5.84375 -7.34375 L 5.15625 -3.40625 L 8.296875 -3.40625 C 9.035156 -3.40625 9.617188 -3.570312 10.046875 -3.90625 C 10.484375 -4.238281 10.757812 -4.71875 10.875 -5.34375 Z M 10.875 -5.34375 "/></g></g></g><g fill="#ffffff" fill-opacity="1"><g transform="translate(97.635336, 45.749995)"><g><path d="M 7.828125 -18.5 L 4.546875 0 L 0.28125 0 L 3.546875 -18.5 Z M 7.828125 -18.5 "/></g></g></g><g fill="#ffffff" fill-opacity="1"><g transform="translate(103.734167, 45.749995)"><g><path d="M 5.15625 -15.40625 C 4.488281 -15.40625 3.957031 -15.582031 3.5625 -15.9375 C 3.164062 -16.289062 2.96875 -16.742188 2.96875 -17.296875 C 2.96875 -18.046875 3.257812 -18.6875 3.84375 -19.21875 C 4.425781 -19.757812 5.132812 -20.03125 5.96875 -20.03125 C 6.632812 -20.03125 7.160156 -19.847656 7.546875 -19.484375 C 7.929688 -19.128906 8.125 -18.664062 8.125 -18.09375 C 8.125 -17.363281 7.832031 -16.734375 7.25 -16.203125 C 6.664062 -15.671875 5.96875 -15.40625 5.15625 -15.40625 Z M 7 -13.953125 L 4.546875 0 L 0.28125 0 L 2.71875 -13.953125 Z M 7 -13.953125 "/></g></g></g><g fill="#ffffff" fill-opacity="1"><g transform="translate(109.832998, 45.749995)"><g><path d="M 6.078125 0.203125 C 4.972656 0.203125 3.984375 0.03125 3.109375 -0.3125 C 2.234375 -0.664062 1.546875 -1.15625 1.046875 -1.78125 C 0.546875 -2.40625 0.296875 -3.128906 0.296875 -3.953125 C 0.296875 -4.066406 0.3125 -4.273438 0.34375 -4.578125 L 4.46875 -4.578125 C 4.4375 -4.054688 4.59375 -3.640625 4.9375 -3.328125 C 5.28125 -3.023438 5.769531 -2.875 6.40625 -2.875 C 6.9375 -2.875 7.375 -2.972656 7.71875 -3.171875 C 8.070312 -3.367188 8.25 -3.65625 8.25 -4.03125 C 8.25 -4.375 8.0625 -4.648438 7.6875 -4.859375 C 7.3125 -5.066406 6.691406 -5.320312 5.828125 -5.625 C 4.921875 -5.925781 4.164062 -6.222656 3.5625 -6.515625 C 2.957031 -6.804688 2.4375 -7.222656 2 -7.765625 C 1.5625 -8.316406 1.34375 -9.007812 1.34375 -9.84375 C 1.34375 -10.664062 1.582031 -11.40625 2.0625 -12.0625 C 2.550781 -12.71875 3.234375 -13.226562 4.109375 -13.59375 C 4.984375 -13.96875 6 -14.15625 7.15625 -14.15625 C 8.300781 -14.15625 9.296875 -13.96875 10.140625 -13.59375 C 10.992188 -13.21875 11.65625 -12.695312 12.125 -12.03125 C 12.59375 -11.363281 12.828125 -10.613281 12.828125 -9.78125 L 12.796875 -9.40625 L 8.921875 -9.40625 C 8.953125 -9.90625 8.800781 -10.300781 8.46875 -10.59375 C 8.132812 -10.894531 7.660156 -11.046875 7.046875 -11.046875 C 6.566406 -11.046875 6.171875 -10.945312 5.859375 -10.75 C 5.554688 -10.550781 5.40625 -10.273438 5.40625 -9.921875 C 5.40625 -9.554688 5.609375 -9.253906 6.015625 -9.015625 C 6.421875 -8.773438 7.054688 -8.503906 7.921875 -8.203125 C 8.828125 -7.898438 9.570312 -7.601562 10.15625 -7.3125 C 10.75 -7.019531 11.257812 -6.609375 11.6875 -6.078125 C 12.113281 -5.554688 12.328125 -4.90625 12.328125 -4.125 C 12.328125 -3.226562 12.054688 -2.453125 11.515625 -1.796875 C 10.972656 -1.148438 10.226562 -0.65625 9.28125 -0.3125 C 8.34375 0.03125 7.273438 0.203125 6.078125 0.203125 Z M 6.078125 0.203125 "/></g></g></g><g fill="#ffffff" fill-opacity="1"><g transform="translate(122.505795, 45.749995)"><g><path d="M 6.078125 0.203125 C 4.972656 0.203125 3.984375 0.03125 3.109375 -0.3125 C 2.234375 -0.664062 1.546875 -1.15625 1.046875 -1.78125 C 0.546875 -2.40625 0.296875 -3.128906 0.296875 -3.953125 C 0.296875 -4.066406 0.3125 -4.273438 0.34375 -4.578125 L 4.46875 -4.578125 C 4.4375 -4.054688 4.59375 -3.640625 4.9375 -3.328125 C 5.28125 -3.023438 5.769531 -2.875 6.40625 -2.875 C 6.9375 -2.875 7.375 -2.972656 7.71875 -3.171875 C 8.070312 -3.367188 8.25 -3.65625 8.25 -4.03125 C 8.25 -4.375 8.0625 -4.648438 7.6875 -4.859375 C 7.3125 -5.066406 6.691406 -5.320312 5.828125 -5.625 C 4.921875 -5.925781 4.164062 -6.222656 3.5625 -6.515625 C 2.957031 -6.804688 2.4375 -7.222656 2 -7.765625 C 1.5625 -8.316406 1.34375 -9.007812 1.34375 -9.84375 C 1.34375 -10.664062 1.582031 -11.40625 2.0625 -12.0625 C 2.550781 -12.71875 3.234375 -13.226562 4.109375 -13.59375 C 4.984375 -13.96875 6 -14.15625 7.15625 -14.15625 C 8.300781 -14.15625 9.296875 -13.96875 10.140625 -13.59375 C 10.992188 -13.21875 11.65625 -12.695312 12.125 -12.03125 C 12.59375 -11.363281 12.828125 -10.613281 12.828125 -9.78125 L 12.796875 -9.40625 L 8.921875 -9.40625 C 8.953125 -9.90625 8.800781 -10.300781 8.46875 -10.59375 C 8.132812 -10.894531 7.660156 -11.046875 7.046875 -11.046875 C 6.566406 -11.046875 6.171875 -10.945312 5.859375 -10.75 C 5.554688 -10.550781 5.40625 -10.273438 5.40625 -9.921875 C 5.40625 -9.554688 5.609375 -9.253906 6.015625 -9.015625 C 6.421875 -8.773438 7.054688 -8.503906 7.921875 -8.203125 C 8.828125 -7.898438 9.570312 -7.601562 10.15625 -7.3125 C 10.75 -7.019531 11.257812 -6.609375 11.6875 -6.078125 C 12.113281 -5.554688 12.328125 -4.90625 12.328125 -4.125 C 12.328125 -3.226562 12.054688 -2.453125 11.515625 -1.796875 C 10.972656 -1.148438 10.226562 -0.65625 9.28125 -0.3125 C 8.34375 0.03125 7.273438 0.203125 6.078125 0.203125 Z M 6.078125 0.203125 "/></g></g></g><g fill="#ffffff" fill-opacity="1"><g transform="translate(135.189481, 45.749995)"><g/></g></g></svg>